<svg width="4687" height="5742" viewBox="0 0 4687 5742" fill="none" xmlns="http://www.w3.org/2000/svg">
<path d="M2767.78 2578C2496.28 2733.43 2349.9 3268.48 2458.94 3542.01C2579.41 3844.07 3332.7 3798.19 3419.14 3724.53C3505.58 3650.88 2798.93 3415.19 2895.36 3137.26C3002.45 2828.76 3540.2 2828.34 3525.56 2696.61C3511.17 2567 3081.61 2398.36 2767.78 2578Z" stroke="white" stroke-width="5" stroke-miterlimit="10"/>
<path d="M2682.78 2539.99C2364.55 2675.44 2226.47 3323.08 2366.75 3628.19C2525.74 3973.77 3344.14 3845.68 3465.62 3790.99C3570.34 3743.92 2890.53 3426.96 2971.81 3091.12C3060.02 2726.24 3545.03 2666.98 3508.8 2582.32C3469.85 2491.57 3056.21 2381.42 2682.78 2539.99Z" stroke="white" stroke-width="5" stroke-miterlimit="10"/>
<path d="M2597.79 2502.07C2233.33 2617.12 2103.3 3377.61 2274.56 3714.3C2472.41 4103.73 3349.05 3892.08 3512.1 3857.54C3630.63 3832.14 2982.73 3439.16 3048.17 3044.81C3118.02 2624.23 3560.78 2500.88 3492.04 2468.63C3440.74 2411.48 3032.17 2364.84 2597.79 2502.07Z" stroke="white" stroke-width="5" stroke-miterlimit="10"/>
<path d="M2512.79 2463.8C2102.36 2559.3 1980.37 3431.79 2182.62 3800.22C2419.66 4232.66 3365.56 3999.6 3558.83 3923.83C3679.89 3876.33 3075.52 3451.18 3124.79 2998.59C3176.68 2522.3 3571.28 2337.07 3475.53 2354.59C3405.51 2333.68 3008.04 2348.75 2512.79 2463.8Z" stroke="white" stroke-width="5" stroke-miterlimit="10"/>
<path d="M2427.78 2426.04C1971.56 2502.24 1857.61 3486.31 2090.17 3886.66C2366.49 4362.44 3360.05 4050.73 3605.05 3990.54C3742.53 3956.67 3168.04 3463.79 3200.97 2952.71C3234.84 2420.71 3590.4 2194.93 3458.5 2240.9C3374.02 2270.27 2984.08 2333.09 2427.78 2426.04Z" stroke="white" stroke-width="5" stroke-miterlimit="10"/>
<path d="M2342.88 2388.03C1840.77 2445.34 1734.95 3540.66 1997.98 3972.76C2313.84 4491.8 3356.08 4011.19 3651.62 4057.42C3804.77 4081.21 3261.18 3476.49 3277.43 2906.82C3294.36 2319.29 3603.37 2027.13 3441.75 2127.37C3341.18 2189.34 2960.21 2317.68 2342.88 2388.03Z" stroke="white" stroke-width="5" stroke-miterlimit="10"/>
<path d="M2257.89 2350.11C1709.98 2388.54 1612.37 3594.59 1905.71 4058.94C2261.28 4621.08 3359.72 4046.07 3698.02 4123.54C3863.53 4161.46 3354.22 3488.6 3353.71 2860.34C3353.2 2216.94 3613.61 1859.68 3424.91 2013.08C3306.56 2109.34 2936.34 2302.44 2257.89 2350.11Z" stroke="white" stroke-width="5" stroke-miterlimit="10"/>
<path d="M2172.88 2312.09C1579.16 2331.9 1490.02 3649.02 1813.5 4145.12C2208.52 4750.35 3364.28 4079.68 3744.48 4190.08C3922.77 4241.8 3447.5 3500.79 3430.14 2814.2C3412.45 2115.26 3623.17 1693.58 3408.13 1899.21C3271.32 2029.93 2912.29 2287.46 2172.88 2312.09Z" stroke="white" stroke-width="5" stroke-miterlimit="10"/>
<path d="M2087.89 2274.08C1448.37 2275.35 1367.27 3703.2 1721.31 4231.3C2155.95 4879.62 3369.62 4112.78 3790.97 4256.7C3982.46 4322.14 3540.88 3513.23 3506.51 2768.15C3471.72 2013.5 3632.57 1528.24 3391.38 1785.34C3235.77 1951.02 2888.5 2272.56 2087.89 2274.08Z" stroke="white" stroke-width="5" stroke-miterlimit="10"/>
<path d="M2002.89 2236.15C1317.15 2219.22 1244.77 3757.3 1629.12 4317.4C2103.21 5008.73 3375.63 4144.95 3837.44 4323.08C4042.48 4402.15 3634.26 3525.42 3582.87 2721.93C3531.06 1911.57 3642.13 1363.07 3374.53 1671.31C3200.13 1872.38 2864.54 2257.83 2002.89 2236.15Z" stroke="white" stroke-width="5" stroke-miterlimit="10"/>
<path d="M1917.89 2198.14C1186.61 2162.5 1122.1 3811.4 1536.93 4403.59C2050.97 5137.92 3382.49 4177.04 3883.92 4389.62C4102.76 4482.23 3727.81 3537.7 3659.32 2675.79C3590.49 1809.64 3651.36 1198.32 3357.77 1557.44C3164.41 1793.9 2840.5 2243.18 1917.89 2198.14Z" stroke="white" stroke-width="5" stroke-miterlimit="10"/>
<path d="M1832.89 2160.13C1055.72 2106.12 999.931 3865.49 1444.73 4489.77C1998.57 5267.02 3389 4208.87 3930.39 4455.9C4163.12 4562.23 3821.27 3550.05 3735.68 2629.39C3649.92 1707.54 3660.76 1033.49 3341 1443.32C3128.76 1715.5 2816.45 2228.53 1832.89 2160.13Z" stroke="white" stroke-width="5" stroke-miterlimit="10"/>
<path d="M1747.9 2122.2C924.766 2049.82 877.526 3919.93 1352.55 4575.87C1946.17 5396.12 3396.21 4240.62 3976.97 4522.62C4223.83 4642.49 3914.91 3562.16 3812.14 2583.42C3709.36 1604.68 3670.16 869.168 3324.25 1329.37C3093.05 1637.19 2792.42 2214.06 1747.9 2122.2Z" stroke="white" stroke-width="5" stroke-miterlimit="10"/>
<path d="M1662.91 2084.19C793.8 1993.52 755.111 3973.6 1260.27 4662.05C1893.77 5525.57 3403.74 4272.62 4023.36 4589.16C4284.53 4722.66 4008.46 3574.35 3888.5 2537.28C3768.88 1503.85 3679.65 704.845 3307.4 1215.68C3057.32 1558.97 2768.38 2199.49 1662.91 2084.19Z" stroke="white" stroke-width="5" stroke-miterlimit="10"/>
<path d="M1577.89 2046.18C662.818 1937.22 634.034 4026.69 1168.32 4748.23C1843.3 5653.06 3411.77 4303.77 4070.08 4655.62C4345.56 4802.84 4102.33 3586.54 3965.1 2491.14C3828.63 1401.93 3689.37 540.438 3290.88 1101.73C3021.58 1480.74 2744.15 2185.1 1577.89 2046.18Z" stroke="white" stroke-width="5" stroke-miterlimit="10"/>
<path d="M1492.91 2008.25C531.861 1881.01 511.543 4080.78 1075.88 4834.25C1790.48 5782.42 3419.32 4334.76 4116.31 4721.99C4406.27 4882.84 4195.72 3598.57 4041.22 2444.67C3887.99 1299.57 3698.61 375.862 3273.87 987.437C2985.86 1402.52 2720.04 2170.63 1492.91 2008.25Z" stroke="white" stroke-width="5" stroke-miterlimit="10"/>
<path d="M1407.91 1970.24C400.471 1824.8 388.957 4134.96 983.685 4920.51C1737.91 5911.02 3427.27 4366.76 4162.79 4788.61C4467.56 4963.26 4291.39 3610.67 4117.58 2398.78C3949.53 1197.64 3708.09 211.877 3257.11 873.909C2950.14 1324.38 2695.82 2156.23 1407.91 1970.24Z" stroke="white" stroke-width="5" stroke-miterlimit="10"/>
<path d="M1322.92 1932.23C269.509 1770.45 266.377 4189.15 891.497 5006.7C1685.34 6040.72 3435.41 4398.25 4209.36 4855.16C4528.27 5043.44 4384.6 3622.86 4194.03 2352.64C4008.72 1095.72 3717.57 47.7262 3240.27 759.96C2914.42 1246.24 2671.28 2144.22 1322.92 1932.23Z" stroke="white" stroke-width="5" stroke-miterlimit="10"/>
<path d="M1237.91 1894.3C138.527 1713.81 143.945 4243.24 799.288 5092.88C1632.67 6169.91 3443.6 4429.66 4255.82 4921.7C4589.29 5123.69 4477.88 3634.88 4270.38 2306.5C4067.88 993.787 3727.13 -116.513 3223.49 646.093C2878.42 1168.52 2647.13 2129.31 1237.91 1894.3Z" stroke="white" stroke-width="5" stroke-miterlimit="10"/>
<path d="M1152.91 1856.29C7.56323 1657.17 21.2779 4297.42 707.098 5178.98C1580.1 6298.84 3451.99 4461.16 4302.3 4988.16C4650.42 5203.95 4571.6 3647.33 4346.75 2260.62C4126.63 892.112 3735.26 -281.343 3206.73 532.397C2841.94 1089.37 2623.01 2114.33 1152.91 1856.29Z" stroke="white" stroke-width="5" stroke-miterlimit="10"/>
<path d="M1067.92 1818.28C-123.394 1600.28 -101.552 4351.69 614.915 5265.16C1527.54 6428.28 3460.38 4492.65 4348.79 5054.36C4711.64 5283.95 4664.48 3659.18 4423.2 2213.89C4186.24 789.843 3745.51 -445.243 3189.98 418.191C2806.73 1011.65 2599.06 2099.77 1067.92 1818.28Z" stroke="white" stroke-width="5" stroke-miterlimit="10"/>
<path d="M3173.13 304.324C2771.51 933.847 2574.67 2084.44 982.921 1780.35C-254.451 1543.9 -223.889 4405.7 522.631 5351.34C1474.96 6557.56 3468.76 4524.14 4395.26 5121.15C5144.49 5604.05 4347.6 -1536.75 3173.13 304.324Z" stroke="white" stroke-width="5" stroke-miterlimit="10"/>
</svg>
